<svg xmlns="http://www.w3.org/2000/svg" xmlns:xlink="http://www.w3.org/1999/xlink" width="240" height="50" viewBox="0 0 240 50">
  <defs>
    <clipPath id="clip-画板_13">
      <rect width="240" height="50"/>
    </clipPath>
  </defs>
  <g id="画板_13" data-name="画板 – 13" clip-path="url(#clip-画板_13)">
    <path id="路径_34" data-name="路径 34" d="M13.44-31.728a10.515,10.515,0,0,1,5.328,1.3,10.473,10.473,0,0,1,3.6,3.5,16.209,16.209,0,0,1,2.064,5.088,28.3,28.3,0,0,1,.624,6.1,27.591,27.591,0,0,1-.72,6.576,14.758,14.758,0,0,1-2.208,5.184,11.375,11.375,0,0,1-3.7,3.312,10.694,10.694,0,0,1-5.184,1.2A10.633,10.633,0,0,1,8.016-.72a10.473,10.473,0,0,1-3.6-3.5A15.573,15.573,0,0,1,2.3-9.312a30.289,30.289,0,0,1-.72-6.24,26.706,26.706,0,0,1,.72-6.384,14.774,14.774,0,0,1,2.208-5.088A9.91,9.91,0,0,1,8.16-30.48,10.735,10.735,0,0,1,13.44-31.728Zm-.1,5.52a2.8,2.8,0,0,0-1.824.624,5.262,5.262,0,0,0-1.392,1.968A15.306,15.306,0,0,0,9.216-20.3a27.686,27.686,0,0,0-.336,4.752q0,5.424,1.2,7.968,1.248,2.592,3.312,2.592,2.112,0,3.264-2.64a22.423,22.423,0,0,0,1.1-8.016,21.428,21.428,0,0,0-1.1-7.872Q15.5-26.208,13.344-26.208ZM40.656-15.024v4.848H28.08v-4.848ZM66.48-31.2v4.608L53.616,0H45.888L58.752-25.1v-.1h-14.3v-6Zm15.7-.528a10.515,10.515,0,0,1,5.328,1.3,10.473,10.473,0,0,1,3.6,3.5,16.209,16.209,0,0,1,2.064,5.088,28.3,28.3,0,0,1,.624,6.1,27.591,27.591,0,0,1-.72,6.576,14.758,14.758,0,0,1-2.208,5.184,11.375,11.375,0,0,1-3.7,3.312,10.694,10.694,0,0,1-5.184,1.2A10.633,10.633,0,0,1,76.752-.72a10.473,10.473,0,0,1-3.6-3.5A15.573,15.573,0,0,1,71.04-9.312a30.289,30.289,0,0,1-.72-6.24,26.706,26.706,0,0,1,.72-6.384,14.774,14.774,0,0,1,2.208-5.088A9.911,9.911,0,0,1,76.9-30.48,10.735,10.735,0,0,1,82.176-31.728Zm-.1,5.52a2.8,2.8,0,0,0-1.824.624,5.262,5.262,0,0,0-1.392,1.968,15.306,15.306,0,0,0-.912,3.312,27.686,27.686,0,0,0-.336,4.752q0,5.424,1.2,7.968,1.248,2.592,3.312,2.592,2.112,0,3.264-2.64a22.423,22.423,0,0,0,1.1-8.016,21.428,21.428,0,0,0-1.1-7.872Q84.24-26.208,82.08-26.208Zm26.736-5.52a10.515,10.515,0,0,1,5.328,1.3,10.473,10.473,0,0,1,3.6,3.5,16.209,16.209,0,0,1,2.064,5.088,28.3,28.3,0,0,1,.624,6.1,27.591,27.591,0,0,1-.72,6.576A14.758,14.758,0,0,1,117.5-3.984a11.375,11.375,0,0,1-3.7,3.312,10.694,10.694,0,0,1-5.184,1.2A10.633,10.633,0,0,1,103.392-.72a10.473,10.473,0,0,1-3.6-3.5A15.573,15.573,0,0,1,97.68-9.312a30.289,30.289,0,0,1-.72-6.24,26.706,26.706,0,0,1,.72-6.384,14.774,14.774,0,0,1,2.208-5.088,9.911,9.911,0,0,1,3.648-3.456A10.735,10.735,0,0,1,108.816-31.728Zm-.1,5.52a2.8,2.8,0,0,0-1.824.624,5.262,5.262,0,0,0-1.392,1.968,15.306,15.306,0,0,0-.912,3.312,27.686,27.686,0,0,0-.336,4.752q0,5.424,1.2,7.968,1.248,2.592,3.312,2.592,2.112,0,3.264-2.64a22.423,22.423,0,0,0,1.1-8.016,21.428,21.428,0,0,0-1.1-7.872Q110.88-26.208,108.72-26.208Zm20.112-15.36a6.226,6.226,0,0,1,4.416,1.824,6.281,6.281,0,0,1,1.824,4.464,6.015,6.015,0,0,1-1.824,4.416,6.04,6.04,0,0,1-4.416,1.872,5.938,5.938,0,0,1-4.416-1.872,5.839,5.839,0,0,1-1.872-4.416,6.094,6.094,0,0,1,1.872-4.464A6.015,6.015,0,0,1,128.832-41.568Zm2.064,4.176a3.071,3.071,0,0,0-2.112-.816,2.739,2.739,0,0,0-2.016.816,2.873,2.873,0,0,0-.864,2.112,2.817,2.817,0,0,0,.864,2.064,2.717,2.717,0,0,0,2.064.864,2.717,2.717,0,0,0,2.064-.864,3.013,3.013,0,0,0,.816-2.064A3.071,3.071,0,0,0,130.9-37.392Z" transform="translate(51.416 44)" fill="#1e1e1e"/>
  </g>
</svg>
