<svg xmlns="http://www.w3.org/2000/svg" xmlns:xlink="http://www.w3.org/1999/xlink" width="240" height="50" viewBox="0 0 240 50">
  <defs>
    <clipPath id="clip-画板_9">
      <rect width="240" height="50"/>
    </clipPath>
  </defs>
  <g id="画板_9" data-name="画板 – 9" clip-path="url(#clip-画板_9)">
    <path id="路径_36" data-name="路径 36" d="M11.328-24.72h-.1L5.28-21.888,4.08-27.36l8.3-3.84h6V0H11.328ZM40.08-31.728a10.515,10.515,0,0,1,5.328,1.3,10.473,10.473,0,0,1,3.6,3.5,16.209,16.209,0,0,1,2.064,5.088,28.3,28.3,0,0,1,.624,6.1,27.591,27.591,0,0,1-.72,6.576,14.758,14.758,0,0,1-2.208,5.184,11.375,11.375,0,0,1-3.7,3.312,10.694,10.694,0,0,1-5.184,1.2A10.633,10.633,0,0,1,34.656-.72a10.473,10.473,0,0,1-3.6-3.5,15.573,15.573,0,0,1-2.112-5.088,30.289,30.289,0,0,1-.72-6.24,26.706,26.706,0,0,1,.72-6.384,14.774,14.774,0,0,1,2.208-5.088A9.91,9.91,0,0,1,34.8-30.48,10.735,10.735,0,0,1,40.08-31.728Zm-.1,5.52a2.8,2.8,0,0,0-1.824.624,5.262,5.262,0,0,0-1.392,1.968,15.306,15.306,0,0,0-.912,3.312,27.686,27.686,0,0,0-.336,4.752q0,5.424,1.2,7.968,1.248,2.592,3.312,2.592,2.112,0,3.264-2.64a22.423,22.423,0,0,0,1.1-8.016,21.428,21.428,0,0,0-1.1-7.872Q42.144-26.208,39.984-26.208ZM76.128-25.2h-12.1l-.672,4.8a1.684,1.684,0,0,1,.48-.048,1.684,1.684,0,0,0,.48-.048h1.056a17.427,17.427,0,0,1,2.256.144,9.951,9.951,0,0,1,2.16.384,16.911,16.911,0,0,1,2.016.72,11.275,11.275,0,0,1,1.776,1.008,8.378,8.378,0,0,1,2.784,3.12,10.205,10.205,0,0,1,1.008,4.7,9.813,9.813,0,0,1-.912,4.176,11.12,11.12,0,0,1-2.64,3.5A13.3,13.3,0,0,1,69.6-.336a16.833,16.833,0,0,1-5.616.864A22.716,22.716,0,0,1,61.3.384q-.96-.1-2.448-.384-1.056-.288-2.016-.576A11.13,11.13,0,0,1,55.3-1.248L56.64-6.72a.138.138,0,0,0,.1.048.368.368,0,0,0,.144.048q.432.192,1.008.432a12.326,12.326,0,0,0,1.728.48q1.248.288,1.92.384a15.614,15.614,0,0,0,2.112.144A9.281,9.281,0,0,0,65.9-5.472a7.109,7.109,0,0,0,2.016-.864,5.142,5.142,0,0,0,1.44-1.44,4.407,4.407,0,0,0,.528-2.16,4.578,4.578,0,0,0-.48-2.16,4.081,4.081,0,0,0-1.584-1.632,8.923,8.923,0,0,0-2.688-1.008A19.171,19.171,0,0,0,61.1-15.12q-1.008,0-2.256.1a8.46,8.46,0,0,0-1.92.192L58.944-31.2H76.128Zm10.9,9.12a9,9,0,0,1-3.408-2.976,7.384,7.384,0,0,1-1.1-3.888,7.759,7.759,0,0,1,.864-3.6,7.384,7.384,0,0,1,2.3-2.784A10.977,10.977,0,0,1,89.136-31.1a14.7,14.7,0,0,1,4.368-.624,13.717,13.717,0,0,1,4.7.72,10.141,10.141,0,0,1,3.216,1.872,6.694,6.694,0,0,1,1.824,2.544,7.7,7.7,0,0,1,.576,2.88,6.5,6.5,0,0,1-.288,1.968,10.4,10.4,0,0,1-.816,1.872,9.4,9.4,0,0,1-1.44,1.68,10.029,10.029,0,0,1-2.016,1.344v.144a10.626,10.626,0,0,1,2.16,1.1,7.759,7.759,0,0,1,1.872,1.68,7.733,7.733,0,0,1,1.248,2.208,7.09,7.09,0,0,1,.48,2.736,8.574,8.574,0,0,1-.864,3.888,8.967,8.967,0,0,1-2.4,2.976A11.544,11.544,0,0,1,97.968-.144a17.582,17.582,0,0,1-4.944.672A15.362,15.362,0,0,1,87.888-.24a9.924,9.924,0,0,1-3.6-1.968,8.241,8.241,0,0,1-2.112-2.784,7.6,7.6,0,0,1-.72-3.168,7.524,7.524,0,0,1,1.488-4.752,10.351,10.351,0,0,1,4.08-3.072ZM93.312-4.512A5.154,5.154,0,0,0,95.04-4.8a3.707,3.707,0,0,0,1.344-.816A3.509,3.509,0,0,0,97.3-6.864,3.656,3.656,0,0,0,97.584-8.4a4.319,4.319,0,0,0-.336-1.824,4.589,4.589,0,0,0-1.056-1.488,8.015,8.015,0,0,0-1.536-1.1,10.527,10.527,0,0,0-1.968-.72A5.1,5.1,0,0,0,89.9-11.808,4.52,4.52,0,0,0,88.9-8.88a4.876,4.876,0,0,0,.288,1.632,3.852,3.852,0,0,0,.864,1.392,5.991,5.991,0,0,0,1.392.96A4.557,4.557,0,0,0,93.312-4.512Zm-.144-22.272a4.364,4.364,0,0,0-1.632.288,2.6,2.6,0,0,0-1.152.768,3.06,3.06,0,0,0-.72,1.152,4.393,4.393,0,0,0-.24,1.392,2.99,2.99,0,0,0,.336,1.44,5.654,5.654,0,0,0,.912,1.2,11.714,11.714,0,0,0,1.392.912,15.661,15.661,0,0,0,1.728.672,5.3,5.3,0,0,0,1.2-.528A4.247,4.247,0,0,0,96-20.4a5.356,5.356,0,0,0,.72-1.152,4.265,4.265,0,0,0,.24-1.344,4.9,4.9,0,0,0-.192-1.44,2.958,2.958,0,0,0-.672-1.248,3.478,3.478,0,0,0-1.2-.864A3.864,3.864,0,0,0,93.168-26.784Z" transform="translate(65.92 40)" fill="#fff"/>
  </g>
</svg>
