<svg xmlns="http://www.w3.org/2000/svg" xmlns:xlink="http://www.w3.org/1999/xlink" width="240" height="50" viewBox="0 0 240 50">
  <defs>
    <clipPath id="clip-画板_12">
      <rect width="240" height="50"/>
    </clipPath>
  </defs>
  <g id="画板_12" data-name="画板 – 12" clip-path="url(#clip-画板_12)">
    <path id="路径_33" data-name="路径 33" d="M11.328-24.72h-.1L5.28-21.888,4.08-27.36l8.3-3.84h6V0H11.328Zm37.248-1.3a4.385,4.385,0,0,0-1.3,0q-.336,0-1.392.1h-.144a15.959,15.959,0,0,0-4.224.912,9.607,9.607,0,0,0-2.976,1.68,7.318,7.318,0,0,0-1.968,2.256,8.248,8.248,0,0,0-1.008,2.592h.144A7.989,7.989,0,0,1,38.544-20.3a10.343,10.343,0,0,1,3.792-.624,11.018,11.018,0,0,1,3.744.672A8.37,8.37,0,0,1,49.1-18.288a9.69,9.69,0,0,1,2.112,3.216,11.087,11.087,0,0,1,.768,4.32,11.2,11.2,0,0,1-.864,4.368,11.446,11.446,0,0,1-2.352,3.6A11.6,11.6,0,0,1,45.12-.336a11.825,11.825,0,0,1-4.608.864A12.839,12.839,0,0,1,35.04-.528,13.243,13.243,0,0,1,31.152-3.5a12.749,12.749,0,0,1-2.3-4.32,17.55,17.55,0,0,1-.768-5.28,20,20,0,0,1,1.488-7.968,16.6,16.6,0,0,1,4.08-5.952,15.084,15.084,0,0,1,5.328-3.264,22.876,22.876,0,0,1,6.672-1.3,8.912,8.912,0,0,1,1.728-.1,9.951,9.951,0,0,1,1.2.048ZM40.416-4.848a3.641,3.641,0,0,0,1.728-.432,3.01,3.01,0,0,0,1.3-1.152A4.873,4.873,0,0,0,44.3-8.16a8.016,8.016,0,0,0,.288-2.208,6.845,6.845,0,0,0-.288-2.064,6.247,6.247,0,0,0-.864-1.728A4.25,4.25,0,0,0,42-15.312a4.764,4.764,0,0,0-2.064-.432,4.43,4.43,0,0,0-1.392.192,5.643,5.643,0,0,0-1.248.576,9.429,9.429,0,0,0-.96.912,4.848,4.848,0,0,0-.672,1.056,3.727,3.727,0,0,0-.336,1.872,11.069,11.069,0,0,0,.384,2.4,7.511,7.511,0,0,0,.96,1.968,4.3,4.3,0,0,0,1.536,1.392A4.876,4.876,0,0,0,40.416-4.848Zm34.8-21.168a4.385,4.385,0,0,0-1.3,0q-.336,0-1.392.1h-.144a15.959,15.959,0,0,0-4.224.912,9.607,9.607,0,0,0-2.976,1.68,7.318,7.318,0,0,0-1.968,2.256,8.248,8.248,0,0,0-1.008,2.592h.144A7.989,7.989,0,0,1,65.184-20.3a10.343,10.343,0,0,1,3.792-.624,11.018,11.018,0,0,1,3.744.672,8.37,8.37,0,0,1,3.024,1.968,9.69,9.69,0,0,1,2.112,3.216,11.087,11.087,0,0,1,.768,4.32,11.2,11.2,0,0,1-.864,4.368,11.446,11.446,0,0,1-2.352,3.6A11.6,11.6,0,0,1,71.76-.336a11.825,11.825,0,0,1-4.608.864A12.839,12.839,0,0,1,61.68-.528,13.243,13.243,0,0,1,57.792-3.5a12.749,12.749,0,0,1-2.3-4.32,17.55,17.55,0,0,1-.768-5.28,20,20,0,0,1,1.488-7.968,16.6,16.6,0,0,1,4.08-5.952,15.084,15.084,0,0,1,5.328-3.264,22.876,22.876,0,0,1,6.672-1.3,8.912,8.912,0,0,1,1.728-.1,9.951,9.951,0,0,1,1.2.048ZM67.056-4.848a3.641,3.641,0,0,0,1.728-.432,3.01,3.01,0,0,0,1.3-1.152,4.873,4.873,0,0,0,.864-1.728,8.016,8.016,0,0,0,.288-2.208,6.845,6.845,0,0,0-.288-2.064,6.247,6.247,0,0,0-.864-1.728,4.251,4.251,0,0,0-1.44-1.152,4.764,4.764,0,0,0-2.064-.432,4.43,4.43,0,0,0-1.392.192,5.643,5.643,0,0,0-1.248.576,9.429,9.429,0,0,0-.96.912,4.848,4.848,0,0,0-.672,1.056,3.727,3.727,0,0,0-.336,1.872,11.069,11.069,0,0,0,.384,2.4,7.511,7.511,0,0,0,.96,1.968,4.3,4.3,0,0,0,1.536,1.392A4.876,4.876,0,0,0,67.056-4.848Zm38.016,1.44a23.139,23.139,0,0,1-.192,3.216,16.425,16.425,0,0,1-.624,2.88,8.016,8.016,0,0,1-1.1,2.448,7.624,7.624,0,0,1-1.68,2.016,12.246,12.246,0,0,1-2.064,1.392,8.929,8.929,0,0,1-2.352.864,13.3,13.3,0,0,1-2.5.48,23.454,23.454,0,0,1-2.592.144q-.72,0-2.352-.1a22.211,22.211,0,0,1-2.256-.384q-.72-.144-2.064-.528a16.483,16.483,0,0,1-1.776-.768l1.44-5.568.96.48a.291.291,0,0,1,.144.072,1.261,1.261,0,0,0,.192.12q1.056.384,1.632.528.528.144,1.344.336A.883.883,0,0,0,89.5,4.3a1.984,1.984,0,0,0,.264.024,12.977,12.977,0,0,0,2.016.144,7.539,7.539,0,0,0,2.4-.384,4.154,4.154,0,0,0,1.92-1.1,4.355,4.355,0,0,0,1.3-1.92,7.011,7.011,0,0,0,.48-2.784V-3.216h-.1A7.164,7.164,0,0,1,95.088-.96a8.264,8.264,0,0,1-3.648.768,9.861,9.861,0,0,1-3.984-.816,10.385,10.385,0,0,1-3.168-2.4,10.632,10.632,0,0,1-2.016-3.6,12.882,12.882,0,0,1-.768-4.608,14.284,14.284,0,0,1,.864-5.136,10.913,10.913,0,0,1,2.3-3.888,9.816,9.816,0,0,1,3.36-2.5A10.16,10.16,0,0,1,92.16-24a7.733,7.733,0,0,1,3.984.96,7.041,7.041,0,0,1,2.448,2.4h.1l.24-2.832h6.336a2.86,2.86,0,0,0-.048.624,3.29,3.29,0,0,1-.048.624q0,1.008-.048,1.536v.864a7.757,7.757,0,0,0-.048,1.008V-3.408Zm-7.3-10.512a3.18,3.18,0,0,0-.048-.672,2.626,2.626,0,0,0-.1-.576v-.1a4.3,4.3,0,0,0-1.392-2.3A3.541,3.541,0,0,0,93.7-18.48a3.622,3.622,0,0,0-1.872.48,4.723,4.723,0,0,0-1.536,1.248A7.2,7.2,0,0,0,89.28-14.64a9.935,9.935,0,0,0-.384,2.832,8.085,8.085,0,0,0,.336,2.448,5.321,5.321,0,0,0,.912,1.968,4.563,4.563,0,0,0,1.488,1.344,4.261,4.261,0,0,0,2.016.48,4.094,4.094,0,0,0,2.5-.816A4.46,4.46,0,0,0,97.536-8.5a6.138,6.138,0,0,0,.192-.96,7.755,7.755,0,0,0,.048-1.008Z" transform="translate(64.92 36)" fill="#fff"/>
  </g>
</svg>
