<svg xmlns="http://www.w3.org/2000/svg" xmlns:xlink="http://www.w3.org/1999/xlink" width="240" height="50" viewBox="0 0 240 50">
  <defs>
    <clipPath id="clip-画板_11">
      <rect width="240" height="50"/>
    </clipPath>
  </defs>
  <g id="画板_11" data-name="画板 – 11" clip-path="url(#clip-画板_11)">
    <path id="路径_32" data-name="路径 32" d="M2.064,0V-4.416l3.984-3.6q2.256-2.016,4.464-4.128A44.387,44.387,0,0,0,13.728-15.6,15.623,15.623,0,0,0,15.6-18.576a6.479,6.479,0,0,0,.672-2.736,5.042,5.042,0,0,0-.288-1.776,3.025,3.025,0,0,0-.912-1.44,4.1,4.1,0,0,0-1.584-1.008,6.494,6.494,0,0,0-2.3-.336,8.912,8.912,0,0,0-1.968.24,10.4,10.4,0,0,0-1.776.576q-.528.24-1.584.816-.48.336-1.344.912L2.448-28.512A17.181,17.181,0,0,1,4.416-29.76q1.1-.528,2.4-1.008,1.392-.432,2.784-.72a20.207,20.207,0,0,1,3.024-.24,13.976,13.976,0,0,1,4.7.72,10.66,10.66,0,0,1,3.456,2.064,8.815,8.815,0,0,1,2.064,3.072,10.254,10.254,0,0,1,.72,3.888,10.944,10.944,0,0,1-.624,3.744,15.035,15.035,0,0,1-1.824,3.456,24.7,24.7,0,0,1-2.64,3.216A42.073,42.073,0,0,1,15.264-8.5l-2.88,2.4V-6H24.192V0ZM48.576-26.016a4.385,4.385,0,0,0-1.3,0q-.336,0-1.392.1h-.144a15.959,15.959,0,0,0-4.224.912,9.607,9.607,0,0,0-2.976,1.68,7.318,7.318,0,0,0-1.968,2.256,8.248,8.248,0,0,0-1.008,2.592h.144A7.989,7.989,0,0,1,38.544-20.3a10.343,10.343,0,0,1,3.792-.624,11.018,11.018,0,0,1,3.744.672A8.37,8.37,0,0,1,49.1-18.288a9.69,9.69,0,0,1,2.112,3.216,11.087,11.087,0,0,1,.768,4.32,11.2,11.2,0,0,1-.864,4.368,11.446,11.446,0,0,1-2.352,3.6A11.6,11.6,0,0,1,45.12-.336a11.825,11.825,0,0,1-4.608.864A12.839,12.839,0,0,1,35.04-.528,13.243,13.243,0,0,1,31.152-3.5a12.749,12.749,0,0,1-2.3-4.32,17.55,17.55,0,0,1-.768-5.28,20,20,0,0,1,1.488-7.968,16.6,16.6,0,0,1,4.08-5.952,15.084,15.084,0,0,1,5.328-3.264,22.876,22.876,0,0,1,6.672-1.3,8.912,8.912,0,0,1,1.728-.1,9.951,9.951,0,0,1,1.2.048ZM40.416-4.848a3.641,3.641,0,0,0,1.728-.432,3.01,3.01,0,0,0,1.3-1.152A4.873,4.873,0,0,0,44.3-8.16a8.016,8.016,0,0,0,.288-2.208,6.845,6.845,0,0,0-.288-2.064,6.247,6.247,0,0,0-.864-1.728A4.25,4.25,0,0,0,42-15.312a4.764,4.764,0,0,0-2.064-.432,4.43,4.43,0,0,0-1.392.192,5.643,5.643,0,0,0-1.248.576,9.429,9.429,0,0,0-.96.912,4.848,4.848,0,0,0-.672,1.056,3.727,3.727,0,0,0-.336,1.872,11.069,11.069,0,0,0,.384,2.4,7.511,7.511,0,0,0,.96,1.968,4.3,4.3,0,0,0,1.536,1.392A4.876,4.876,0,0,0,40.416-4.848ZM59.9.528a3.935,3.935,0,0,1-1.68-.336A3.7,3.7,0,0,1,56.88-.72a4.568,4.568,0,0,1-.912-1.392,5.58,5.58,0,0,1-.288-1.776,5.454,5.454,0,0,1,.288-1.824A4.568,4.568,0,0,1,56.88-7.1a4.568,4.568,0,0,1,1.392-.912A4.06,4.06,0,0,1,60-8.352a4.06,4.06,0,0,1,1.728.336,3.467,3.467,0,0,1,1.344.912,4.337,4.337,0,0,1,.864,1.392,4.319,4.319,0,0,1,.336,1.824,4.619,4.619,0,0,1-.336,1.776A3.66,3.66,0,0,1,63.072-.72a3.7,3.7,0,0,1-1.344.912A4.319,4.319,0,0,1,59.9.528ZM87.7-26.016a4.385,4.385,0,0,0-1.3,0q-.336,0-1.392.1h-.144a15.959,15.959,0,0,0-4.224.912,9.607,9.607,0,0,0-2.976,1.68A7.318,7.318,0,0,0,75.7-21.072a8.248,8.248,0,0,0-1.008,2.592h.144A7.989,7.989,0,0,1,77.664-20.3a10.343,10.343,0,0,1,3.792-.624,11.018,11.018,0,0,1,3.744.672,8.37,8.37,0,0,1,3.024,1.968,9.69,9.69,0,0,1,2.112,3.216,11.087,11.087,0,0,1,.768,4.32,11.2,11.2,0,0,1-.864,4.368,11.446,11.446,0,0,1-2.352,3.6A11.6,11.6,0,0,1,84.24-.336a11.825,11.825,0,0,1-4.608.864A12.839,12.839,0,0,1,74.16-.528,13.243,13.243,0,0,1,70.272-3.5a12.749,12.749,0,0,1-2.3-4.32A17.55,17.55,0,0,1,67.2-13.1a20,20,0,0,1,1.488-7.968,16.6,16.6,0,0,1,4.08-5.952A15.084,15.084,0,0,1,78.1-30.288a22.876,22.876,0,0,1,6.672-1.3,8.912,8.912,0,0,1,1.728-.1,9.951,9.951,0,0,1,1.2.048ZM79.536-4.848a3.641,3.641,0,0,0,1.728-.432,3.01,3.01,0,0,0,1.3-1.152,4.873,4.873,0,0,0,.864-1.728,8.016,8.016,0,0,0,.288-2.208,6.845,6.845,0,0,0-.288-2.064,6.247,6.247,0,0,0-.864-1.728,4.25,4.25,0,0,0-1.44-1.152,4.764,4.764,0,0,0-2.064-.432,4.43,4.43,0,0,0-1.392.192,5.643,5.643,0,0,0-1.248.576,9.429,9.429,0,0,0-.96.912,4.848,4.848,0,0,0-.672,1.056,3.727,3.727,0,0,0-.336,1.872,11.07,11.07,0,0,0,.384,2.4,7.511,7.511,0,0,0,.96,1.968,4.3,4.3,0,0,0,1.536,1.392A4.876,4.876,0,0,0,79.536-4.848ZM95.328-15.984q0-2.832-.048-4.032-.1-1.872-.144-3.456h6.192l.288,3.168h.144a7.277,7.277,0,0,1,.96-1.248,9.725,9.725,0,0,1,1.488-1.2,8.457,8.457,0,0,1,2.016-.912,8.928,8.928,0,0,1,2.64-.384,7.089,7.089,0,0,1,3.984,1.1,6.107,6.107,0,0,1,2.448,2.928h.1a10.868,10.868,0,0,1,3.072-2.88,15.8,15.8,0,0,1,2.064-.864,9.138,9.138,0,0,1,2.4-.288,7.138,7.138,0,0,1,3.12.624,6.071,6.071,0,0,1,2.544,1.872,8.221,8.221,0,0,1,1.632,3.168,14.258,14.258,0,0,1,.624,4.56V0h-7.1V-12.768a7.593,7.593,0,0,0-.864-3.984,2.851,2.851,0,0,0-2.592-1.392,3.5,3.5,0,0,0-1.2.192,3.474,3.474,0,0,0-.96.576,2.814,2.814,0,0,0-.72.816,4.1,4.1,0,0,0-.528.96,4.641,4.641,0,0,0-.192.912,6.62,6.62,0,0,0-.048.96V0h-7.1V-13.2a8.968,8.968,0,0,0-.192-2.016,4.185,4.185,0,0,0-.624-1.536,2.881,2.881,0,0,0-1.056-1.008,3.041,3.041,0,0,0-1.536-.384,3.212,3.212,0,0,0-1.248.24,5.094,5.094,0,0,0-1.008.624,4.522,4.522,0,0,0-.72.816,7.376,7.376,0,0,0-.432.912,3.3,3.3,0,0,0-.24.912,6.62,6.62,0,0,0-.048.96V0h-7.1Zm41.28,0q0-2.832-.048-4.032-.1-1.872-.144-3.456h6.192L142.9-20.3h.144a7.277,7.277,0,0,1,.96-1.248,9.724,9.724,0,0,1,1.488-1.2,8.457,8.457,0,0,1,2.016-.912,8.928,8.928,0,0,1,2.64-.384,7.089,7.089,0,0,1,3.984,1.1,6.107,6.107,0,0,1,2.448,2.928h.1a10.868,10.868,0,0,1,3.072-2.88,15.794,15.794,0,0,1,2.064-.864,9.138,9.138,0,0,1,2.4-.288,7.138,7.138,0,0,1,3.12.624,6.071,6.071,0,0,1,2.544,1.872,8.221,8.221,0,0,1,1.632,3.168,14.258,14.258,0,0,1,.624,4.56V0h-7.1V-12.768a7.593,7.593,0,0,0-.864-3.984,2.851,2.851,0,0,0-2.592-1.392,3.5,3.5,0,0,0-1.2.192,3.474,3.474,0,0,0-.96.576,2.815,2.815,0,0,0-.72.816,4.1,4.1,0,0,0-.528.96,4.642,4.642,0,0,0-.192.912,6.622,6.622,0,0,0-.048.96V0h-7.1V-13.2a8.968,8.968,0,0,0-.192-2.016A4.185,4.185,0,0,0,150-16.752a2.881,2.881,0,0,0-1.056-1.008,3.041,3.041,0,0,0-1.536-.384,3.212,3.212,0,0,0-1.248.24,5.094,5.094,0,0,0-1.008.624,4.522,4.522,0,0,0-.72.816,7.374,7.374,0,0,0-.432.912,3.3,3.3,0,0,0-.24.912,6.622,6.622,0,0,0-.048.96V0h-7.1Z" transform="translate(32.936 40)" fill="#fff"/>
  </g>
</svg>
