<svg xmlns="http://www.w3.org/2000/svg" xmlns:xlink="http://www.w3.org/1999/xlink" width="240" height="50" viewBox="0 0 240 50">
  <defs>
    <clipPath id="clip-Web">
      <rect width="240" height="50"/>
    </clipPath>
  </defs>
  <g id="Web" clip-path="url(#clip-Web)">
    <g id="组_12" data-name="组 12" transform="translate(1.176 -0.272)">
      <path id="路径_65" data-name="路径 65" d="M3.312-7.152a11.235,11.235,0,0,0,1.248.624,1.028,1.028,0,0,1,.24.072q.192.072.288.12.768.288,1.2.432a18.512,18.512,0,0,0,2.064.48,11.821,11.821,0,0,0,2.208.192,9.557,9.557,0,0,0,2.5-.288,6.126,6.126,0,0,0,1.776-.912,3.774,3.774,0,0,0,1.056-1.3,4.028,4.028,0,0,0,.384-1.632,3.951,3.951,0,0,0-.528-2.016,4.137,4.137,0,0,0-1.392-1.392,5.948,5.948,0,0,0-2.016-.816,9.287,9.287,0,0,0-2.352-.288H7.008V-19.1h2.88A8.216,8.216,0,0,0,11.76-19.3a7.161,7.161,0,0,0,1.776-.624,3.474,3.474,0,0,0,1.344-1.1,2.636,2.636,0,0,0,.528-1.68,2.952,2.952,0,0,0-1.152-2.352,5.259,5.259,0,0,0-3.456-.912,9.3,9.3,0,0,0-1.92.192,8.912,8.912,0,0,0-1.584.432.38.38,0,0,0-.24.048q-.96.336-1.536.576l-.192.1-.192.1a7.045,7.045,0,0,0-.816.432l-1.488-5.28A14.442,14.442,0,0,1,4.56-30.24a19.687,19.687,0,0,1,2.256-.768A26.4,26.4,0,0,1,9.5-31.536a21.142,21.142,0,0,1,2.976-.192A14,14,0,0,1,16.9-31.1a8.348,8.348,0,0,1,3.216,1.68,6.824,6.824,0,0,1,2.016,2.448,7.281,7.281,0,0,1,.672,3.024,7.392,7.392,0,0,1-1.392,4.368,9.03,9.03,0,0,1-4.32,2.88v.1a8.118,8.118,0,0,1,2.64.912,8.528,8.528,0,0,1,2.16,1.632,6.5,6.5,0,0,1,1.44,2.256,7.675,7.675,0,0,1,.528,2.832,8.758,8.758,0,0,1-.864,3.792A9.382,9.382,0,0,1,20.448-2.16,13.919,13.919,0,0,1,16.416-.192a18.5,18.5,0,0,1-5.328.72A18.545,18.545,0,0,1,8.208.336Q6.528.048,5.616-.144A13.444,13.444,0,0,1,3.5-.816Q2.88-1.1,1.824-1.632ZM28.7,0V-4.416l3.984-3.6q2.256-2.016,4.464-4.128A44.387,44.387,0,0,0,40.368-15.6a15.623,15.623,0,0,0,1.872-2.976,6.479,6.479,0,0,0,.672-2.736,5.042,5.042,0,0,0-.288-1.776,3.025,3.025,0,0,0-.912-1.44,4.1,4.1,0,0,0-1.584-1.008,6.494,6.494,0,0,0-2.3-.336,8.912,8.912,0,0,0-1.968.24,10.4,10.4,0,0,0-1.776.576q-.528.24-1.584.816-.48.336-1.344.912l-2.064-5.184a17.18,17.18,0,0,1,1.968-1.248q1.1-.528,2.4-1.008,1.392-.432,2.784-.72a20.207,20.207,0,0,1,3.024-.24,13.976,13.976,0,0,1,4.7.72,10.66,10.66,0,0,1,3.456,2.064,8.815,8.815,0,0,1,2.064,3.072,10.254,10.254,0,0,1,.72,3.888,10.944,10.944,0,0,1-.624,3.744,15.035,15.035,0,0,1-1.824,3.456,24.7,24.7,0,0,1-2.64,3.216A42.073,42.073,0,0,1,41.9-8.5l-2.88,2.4V-6H50.832V0ZM66.72-31.728a10.515,10.515,0,0,1,5.328,1.3,10.473,10.473,0,0,1,3.6,3.5,16.209,16.209,0,0,1,2.064,5.088,28.3,28.3,0,0,1,.624,6.1,27.591,27.591,0,0,1-.72,6.576,14.758,14.758,0,0,1-2.208,5.184,11.375,11.375,0,0,1-3.7,3.312,10.694,10.694,0,0,1-5.184,1.2A10.633,10.633,0,0,1,61.3-.72a10.473,10.473,0,0,1-3.6-3.5,15.573,15.573,0,0,1-2.112-5.088,30.289,30.289,0,0,1-.72-6.24,26.706,26.706,0,0,1,.72-6.384,14.774,14.774,0,0,1,2.208-5.088A9.91,9.91,0,0,1,61.44-30.48,10.735,10.735,0,0,1,66.72-31.728Zm-.1,5.52a2.8,2.8,0,0,0-1.824.624,5.262,5.262,0,0,0-1.392,1.968A15.306,15.306,0,0,0,62.5-20.3a27.686,27.686,0,0,0-.336,4.752q0,5.424,1.2,7.968,1.248,2.592,3.312,2.592,2.112,0,3.264-2.64a22.423,22.423,0,0,0,1.1-8.016,21.428,21.428,0,0,0-1.1-7.872Q68.784-26.208,66.624-26.208Zm26.736-5.52a10.515,10.515,0,0,1,5.328,1.3,10.473,10.473,0,0,1,3.6,3.5,16.209,16.209,0,0,1,2.064,5.088,28.3,28.3,0,0,1,.624,6.1,27.591,27.591,0,0,1-.72,6.576,14.758,14.758,0,0,1-2.208,5.184,11.375,11.375,0,0,1-3.7,3.312,10.694,10.694,0,0,1-5.184,1.2A10.633,10.633,0,0,1,87.936-.72a10.473,10.473,0,0,1-3.6-3.5,15.573,15.573,0,0,1-2.112-5.088,30.289,30.289,0,0,1-.72-6.24,26.706,26.706,0,0,1,.72-6.384,14.774,14.774,0,0,1,2.208-5.088A9.91,9.91,0,0,1,88.08-30.48,10.735,10.735,0,0,1,93.36-31.728Zm-.1,5.52a2.8,2.8,0,0,0-1.824.624,5.262,5.262,0,0,0-1.392,1.968,15.306,15.306,0,0,0-.912,3.312,27.686,27.686,0,0,0-.336,4.752q0,5.424,1.2,7.968,1.248,2.592,3.312,2.592,2.112,0,3.264-2.64a22.423,22.423,0,0,0,1.1-8.016,21.428,21.428,0,0,0-1.1-7.872Q95.424-26.208,93.264-26.208Zm46.128,1.488h-.1l-5.952,2.832-1.2-5.472,8.3-3.84h6V0h-7.056Zm37.248-1.3a4.385,4.385,0,0,0-1.3,0q-.336,0-1.392.1h-.144a15.959,15.959,0,0,0-4.224.912,9.607,9.607,0,0,0-2.976,1.68,7.318,7.318,0,0,0-1.968,2.256,8.249,8.249,0,0,0-1.008,2.592h.144a7.989,7.989,0,0,1,2.832-1.824,10.343,10.343,0,0,1,3.792-.624,11.018,11.018,0,0,1,3.744.672,8.37,8.37,0,0,1,3.024,1.968,9.69,9.69,0,0,1,2.112,3.216,11.087,11.087,0,0,1,.768,4.32,11.2,11.2,0,0,1-.864,4.368,11.446,11.446,0,0,1-2.352,3.6,11.6,11.6,0,0,1-3.648,2.448,11.825,11.825,0,0,1-4.608.864A12.839,12.839,0,0,1,163.1-.528,13.243,13.243,0,0,1,159.216-3.5a12.749,12.749,0,0,1-2.3-4.32,17.55,17.55,0,0,1-.768-5.28,20,20,0,0,1,1.488-7.968,16.6,16.6,0,0,1,4.08-5.952,15.084,15.084,0,0,1,5.328-3.264,22.876,22.876,0,0,1,6.672-1.3,8.912,8.912,0,0,1,1.728-.1,9.951,9.951,0,0,1,1.2.048ZM168.48-4.848a3.641,3.641,0,0,0,1.728-.432,3.01,3.01,0,0,0,1.3-1.152,4.873,4.873,0,0,0,.864-1.728,8.016,8.016,0,0,0,.288-2.208,6.845,6.845,0,0,0-.288-2.064,6.247,6.247,0,0,0-.864-1.728,4.25,4.25,0,0,0-1.44-1.152A4.764,4.764,0,0,0,168-15.744a4.43,4.43,0,0,0-1.392.192,5.643,5.643,0,0,0-1.248.576,9.428,9.428,0,0,0-.96.912,4.847,4.847,0,0,0-.672,1.056,3.727,3.727,0,0,0-.336,1.872,11.069,11.069,0,0,0,.384,2.4,7.511,7.511,0,0,0,.96,1.968,4.3,4.3,0,0,0,1.536,1.392A4.876,4.876,0,0,0,168.48-4.848Zm26.3-26.88a10.515,10.515,0,0,1,5.328,1.3,10.473,10.473,0,0,1,3.6,3.5,16.209,16.209,0,0,1,2.064,5.088,28.3,28.3,0,0,1,.624,6.1,27.591,27.591,0,0,1-.72,6.576,14.758,14.758,0,0,1-2.208,5.184,11.375,11.375,0,0,1-3.7,3.312,10.694,10.694,0,0,1-5.184,1.2A10.633,10.633,0,0,1,189.36-.72a10.473,10.473,0,0,1-3.6-3.5,15.573,15.573,0,0,1-2.112-5.088,30.289,30.289,0,0,1-.72-6.24,26.706,26.706,0,0,1,.72-6.384,14.774,14.774,0,0,1,2.208-5.088A9.911,9.911,0,0,1,189.5-30.48,10.735,10.735,0,0,1,194.784-31.728Zm-.1,5.52a2.8,2.8,0,0,0-1.824.624,5.262,5.262,0,0,0-1.392,1.968,15.305,15.305,0,0,0-.912,3.312,27.686,27.686,0,0,0-.336,4.752q0,5.424,1.2,7.968,1.248,2.592,3.312,2.592,2.112,0,3.264-2.64a22.423,22.423,0,0,0,1.1-8.016A21.429,21.429,0,0,0,198-23.52Q196.848-26.208,194.688-26.208Zm26.736-5.52a10.515,10.515,0,0,1,5.328,1.3,10.473,10.473,0,0,1,3.6,3.5,16.209,16.209,0,0,1,2.064,5.088,28.3,28.3,0,0,1,.624,6.1,27.591,27.591,0,0,1-.72,6.576,14.758,14.758,0,0,1-2.208,5.184,11.375,11.375,0,0,1-3.7,3.312,10.694,10.694,0,0,1-5.184,1.2A10.633,10.633,0,0,1,216-.72a10.473,10.473,0,0,1-3.6-3.5,15.573,15.573,0,0,1-2.112-5.088,30.289,30.289,0,0,1-.72-6.24,26.706,26.706,0,0,1,.72-6.384,14.774,14.774,0,0,1,2.208-5.088,9.911,9.911,0,0,1,3.648-3.456A10.735,10.735,0,0,1,221.424-31.728Zm-.1,5.52a2.8,2.8,0,0,0-1.824.624,5.262,5.262,0,0,0-1.392,1.968A15.305,15.305,0,0,0,217.2-20.3a27.686,27.686,0,0,0-.336,4.752q0,5.424,1.2,7.968,1.248,2.592,3.312,2.592,2.112,0,3.264-2.64a22.423,22.423,0,0,0,1.1-8.016,21.429,21.429,0,0,0-1.1-7.872Q223.488-26.208,221.328-26.208Z" transform="translate(1 41)" fill="#fff"/>
      <path id="路径_64" data-name="路径 64" d="M16.6-10.612l6.1,6.076L20.132-1.96l-6.1-6.076L7.9-1.9,5.292-4.48l6.132-6.132L5.348-16.688l2.576-2.6L14-13.216l6.048-6.02,2.576,2.576Z" transform="translate(106 37)" fill="#fff"/>
    </g>
  </g>
</svg>
