<svg xmlns="http://www.w3.org/2000/svg" xmlns:xlink="http://www.w3.org/1999/xlink" width="240" height="50" viewBox="0 0 240 50">
  <defs>
    <clipPath id="clip-画板_14">
      <rect width="240" height="50"/>
    </clipPath>
  </defs>
  <g id="画板_14" data-name="画板 – 14" clip-path="url(#clip-画板_14)">
    <path id="路径_35" data-name="路径 35" d="M22.848-25.2h-12.1l-.672,4.8a1.684,1.684,0,0,1,.48-.048,1.684,1.684,0,0,0,.48-.048H12.1a17.427,17.427,0,0,1,2.256.144,9.951,9.951,0,0,1,2.16.384,16.911,16.911,0,0,1,2.016.72A11.275,11.275,0,0,1,20.3-18.24a8.378,8.378,0,0,1,2.784,3.12,10.205,10.205,0,0,1,1.008,4.7,9.813,9.813,0,0,1-.912,4.176,11.12,11.12,0,0,1-2.64,3.5,13.3,13.3,0,0,1-4.224,2.4A16.833,16.833,0,0,1,10.7.528,22.716,22.716,0,0,1,8.016.384Q7.056.288,5.568,0,4.512-.288,3.552-.576a11.13,11.13,0,0,1-1.536-.672L3.36-6.72a.138.138,0,0,0,.1.048.368.368,0,0,0,.144.048q.432.192,1.008.432a12.327,12.327,0,0,0,1.728.48q1.248.288,1.92.384a15.614,15.614,0,0,0,2.112.144,9.282,9.282,0,0,0,2.256-.288,7.109,7.109,0,0,0,2.016-.864,5.142,5.142,0,0,0,1.44-1.44,4.407,4.407,0,0,0,.528-2.16,4.578,4.578,0,0,0-.48-2.16,4.081,4.081,0,0,0-1.584-1.632,8.923,8.923,0,0,0-2.688-1.008,19.171,19.171,0,0,0-4.032-.384q-1.008,0-2.256.1a8.46,8.46,0,0,0-1.92.192L5.664-31.2H22.848Zm26.64,0h-12.1l-.672,4.8a1.684,1.684,0,0,1,.48-.048,1.684,1.684,0,0,0,.48-.048h1.056a17.427,17.427,0,0,1,2.256.144,9.951,9.951,0,0,1,2.16.384,16.911,16.911,0,0,1,2.016.72,11.275,11.275,0,0,1,1.776,1.008,8.378,8.378,0,0,1,2.784,3.12,10.205,10.205,0,0,1,1.008,4.7,9.813,9.813,0,0,1-.912,4.176,11.12,11.12,0,0,1-2.64,3.5,13.3,13.3,0,0,1-4.224,2.4,16.833,16.833,0,0,1-5.616.864A22.716,22.716,0,0,1,34.656.384Q33.7.288,32.208,0q-1.056-.288-2.016-.576a11.13,11.13,0,0,1-1.536-.672L30-6.72a.138.138,0,0,0,.1.048.368.368,0,0,0,.144.048q.432.192,1.008.432a12.327,12.327,0,0,0,1.728.48q1.248.288,1.92.384a15.614,15.614,0,0,0,2.112.144,9.282,9.282,0,0,0,2.256-.288,7.108,7.108,0,0,0,2.016-.864,5.142,5.142,0,0,0,1.44-1.44,4.407,4.407,0,0,0,.528-2.16,4.578,4.578,0,0,0-.48-2.16,4.081,4.081,0,0,0-1.584-1.632A8.923,8.923,0,0,0,38.5-14.736a19.171,19.171,0,0,0-4.032-.384q-1.008,0-2.256.1a8.46,8.46,0,0,0-1.92.192L32.3-31.2H49.488ZM67.3-15.024v4.848H54.72v-4.848ZM93.12-31.2v4.608L80.256,0H72.528L85.392-25.1v-.1h-14.3v-6ZM106.7-24.72h-.1l-5.952,2.832-1.2-5.472,8.3-3.84h6V0H106.7Zm18.24,8.736q0-2.832-.048-4.032-.1-1.872-.144-3.456h6.192l.288,3.168h.144a7.278,7.278,0,0,1,.96-1.248,9.724,9.724,0,0,1,1.488-1.2,8.457,8.457,0,0,1,2.016-.912,8.928,8.928,0,0,1,2.64-.384,7.089,7.089,0,0,1,3.984,1.1,6.107,6.107,0,0,1,2.448,2.928h.1a10.868,10.868,0,0,1,3.072-2.88,15.8,15.8,0,0,1,2.064-.864,9.138,9.138,0,0,1,2.4-.288,7.138,7.138,0,0,1,3.12.624,6.071,6.071,0,0,1,2.544,1.872,8.221,8.221,0,0,1,1.632,3.168,14.258,14.258,0,0,1,.624,4.56V0h-7.1V-12.768a7.593,7.593,0,0,0-.864-3.984,2.851,2.851,0,0,0-2.592-1.392,3.5,3.5,0,0,0-1.2.192,3.474,3.474,0,0,0-.96.576,2.815,2.815,0,0,0-.72.816,4.1,4.1,0,0,0-.528.96,4.64,4.64,0,0,0-.192.912,6.622,6.622,0,0,0-.048.96V0h-7.1V-13.2a8.968,8.968,0,0,0-.192-2.016,4.185,4.185,0,0,0-.624-1.536,2.881,2.881,0,0,0-1.056-1.008,3.04,3.04,0,0,0-1.536-.384,3.212,3.212,0,0,0-1.248.24,5.094,5.094,0,0,0-1.008.624,4.522,4.522,0,0,0-.72.816,7.375,7.375,0,0,0-.432.912,3.3,3.3,0,0,0-.24.912,6.622,6.622,0,0,0-.048.96V0h-7.1Zm41.28,0q0-2.832-.048-4.032-.1-1.872-.144-3.456h6.192l.288,3.168h.144a7.277,7.277,0,0,1,.96-1.248,9.724,9.724,0,0,1,1.488-1.2,8.457,8.457,0,0,1,2.016-.912,8.928,8.928,0,0,1,2.64-.384,7.089,7.089,0,0,1,3.984,1.1,6.107,6.107,0,0,1,2.448,2.928h.1a10.868,10.868,0,0,1,3.072-2.88,15.794,15.794,0,0,1,2.064-.864,9.138,9.138,0,0,1,2.4-.288,7.138,7.138,0,0,1,3.12.624,6.071,6.071,0,0,1,2.544,1.872,8.221,8.221,0,0,1,1.632,3.168,14.258,14.258,0,0,1,.624,4.56V0h-7.1V-12.768a7.593,7.593,0,0,0-.864-3.984,2.851,2.851,0,0,0-2.592-1.392,3.5,3.5,0,0,0-1.2.192,3.474,3.474,0,0,0-.96.576,2.815,2.815,0,0,0-.72.816,4.1,4.1,0,0,0-.528.96,4.642,4.642,0,0,0-.192.912,6.622,6.622,0,0,0-.048.96V0h-7.1V-13.2a8.968,8.968,0,0,0-.192-2.016,4.185,4.185,0,0,0-.624-1.536,2.881,2.881,0,0,0-1.056-1.008,3.04,3.04,0,0,0-1.536-.384,3.212,3.212,0,0,0-1.248.24,5.094,5.094,0,0,0-1.008.624,4.522,4.522,0,0,0-.72.816,7.377,7.377,0,0,0-.432.912,3.3,3.3,0,0,0-.24.912,6.622,6.622,0,0,0-.048.96V0h-7.1Z" transform="translate(17.984 41)" fill="#1e1e1e"/>
  </g>
</svg>
