<svg xmlns="http://www.w3.org/2000/svg" xmlns:xlink="http://www.w3.org/1999/xlink" width="240" height="50" viewBox="0 0 240 50">
  <defs>
    <clipPath id="clip-画板_10">
      <rect width="240" height="50"/>
    </clipPath>
  </defs>
  <g id="画板_10" data-name="画板 – 10" clip-path="url(#clip-画板_10)">
    <path id="路径_60" data-name="路径 60" d="M4.272-5.232q.528.048,1.392.048,1.056,0,1.776-.048a18.357,18.357,0,0,0,3.312-.576,10.127,10.127,0,0,0,2.832-1.344A8.733,8.733,0,0,0,16.128-9.7,8.626,8.626,0,0,0,17.52-12.96l-.1-.048a7.4,7.4,0,0,1-2.592,1.68,10.3,10.3,0,0,1-3.7.576,11.018,11.018,0,0,1-3.744-.672,9.17,9.17,0,0,1-3.072-1.92,8.528,8.528,0,0,1-2.112-3.024A10.113,10.113,0,0,1,1.44-20.5a10.85,10.85,0,0,1,.864-4.32,11.409,11.409,0,0,1,2.448-3.6,10.858,10.858,0,0,1,3.7-2.4,11.873,11.873,0,0,1,4.752-.912,11.823,11.823,0,0,1,5.232,1.056,10.365,10.365,0,0,1,3.7,2.928,11.952,11.952,0,0,1,2.16,4.272,18.283,18.283,0,0,1,.72,5.184,22.207,22.207,0,0,1-1.44,8.448,16.345,16.345,0,0,1-4.032,5.952,15.1,15.1,0,0,1-5.28,3.12A26.976,26.976,0,0,1,7.584.432,12.47,12.47,0,0,1,5.76.48,6.155,6.155,0,0,1,4.848.432H4.272ZM12.912-26.4a4.123,4.123,0,0,0-1.68.384,4.6,4.6,0,0,0-1.344,1.152,4.873,4.873,0,0,0-.864,1.728,6.163,6.163,0,0,0-.336,2.208,6.652,6.652,0,0,0,.288,1.92,6.773,6.773,0,0,0,.816,1.584,4.722,4.722,0,0,0,1.392,1.1,4.9,4.9,0,0,0,1.92.384,5.073,5.073,0,0,0,2.544-.576,4.8,4.8,0,0,0,1.536-1.44,1.478,1.478,0,0,0,.24-.576.278.278,0,0,1,.048-.192,8.815,8.815,0,0,0,.048-1.1,11.831,11.831,0,0,0-.192-2.448,5.087,5.087,0,0,0-.816-2.064,4.27,4.27,0,0,0-1.44-1.488A3.812,3.812,0,0,0,12.912-26.4ZM40.08-31.728a10.515,10.515,0,0,1,5.328,1.3,10.473,10.473,0,0,1,3.6,3.5,16.209,16.209,0,0,1,2.064,5.088,28.3,28.3,0,0,1,.624,6.1,27.591,27.591,0,0,1-.72,6.576,14.758,14.758,0,0,1-2.208,5.184,11.375,11.375,0,0,1-3.7,3.312,10.694,10.694,0,0,1-5.184,1.2A10.633,10.633,0,0,1,34.656-.72a10.473,10.473,0,0,1-3.6-3.5,15.573,15.573,0,0,1-2.112-5.088,30.289,30.289,0,0,1-.72-6.24,26.706,26.706,0,0,1,.72-6.384,14.774,14.774,0,0,1,2.208-5.088A9.91,9.91,0,0,1,34.8-30.48,10.735,10.735,0,0,1,40.08-31.728Zm-.1,5.52a2.8,2.8,0,0,0-1.824.624,5.262,5.262,0,0,0-1.392,1.968,15.306,15.306,0,0,0-.912,3.312,27.686,27.686,0,0,0-.336,4.752q0,5.424,1.2,7.968,1.248,2.592,3.312,2.592,2.112,0,3.264-2.64a22.423,22.423,0,0,0,1.1-8.016,21.428,21.428,0,0,0-1.1-7.872Q42.144-26.208,39.984-26.208ZM60.1-41.568a6.226,6.226,0,0,1,4.416,1.824,6.281,6.281,0,0,1,1.824,4.464,6.015,6.015,0,0,1-1.824,4.416A6.04,6.04,0,0,1,60.1-28.992a5.938,5.938,0,0,1-4.416-1.872,5.839,5.839,0,0,1-1.872-4.416,6.094,6.094,0,0,1,1.872-4.464A6.015,6.015,0,0,1,60.1-41.568Zm2.064,4.176a3.071,3.071,0,0,0-2.112-.816,2.739,2.739,0,0,0-2.016.816,2.873,2.873,0,0,0-.864,2.112,2.817,2.817,0,0,0,.864,2.064,2.717,2.717,0,0,0,2.064.864,2.717,2.717,0,0,0,2.064-.864,3.013,3.013,0,0,0,.816-2.064A3.071,3.071,0,0,0,62.16-37.392Z" transform="translate(86.56 45.568)" fill="#fff"/>
  </g>
</svg>
