<svg xmlns="http://www.w3.org/2000/svg" xmlns:xlink="http://www.w3.org/1999/xlink" width="70" height="70" viewBox="0 0 70 70">
  <defs>
    <clipPath id="clip-PC">
      <rect width="70" height="70"/>
    </clipPath>
  </defs>
  <g id="PC" clip-path="url(#clip-PC)">
    <g id="组_6" data-name="组 6">
      <g id="路径_22" data-name="路径 22" fill="none">
        <path d="M34.844,0A34.844,34.844,0,1,1,0,34.844,34.844,34.844,0,0,1,34.844,0Z" stroke="none"/>
        <path d="M 34.84435272216797 2 C 30.40950775146484 2 26.1083984375 2.868118286132812 22.06046295166016 4.580253601074219 C 18.14962005615234 6.234397888183594 14.63690948486328 8.602874755859375 11.6198844909668 11.6198844909668 C 8.602874755859375 14.63690948486328 6.234397888183594 18.14962005615234 4.580253601074219 22.06046295166016 C 2.868118286132812 26.1083984375 2 30.40950775146484 2 34.84435272216797 C 2 39.27919769287109 2.868118286132812 43.58030700683594 4.580253601074219 47.62824249267578 C 6.234397888183594 51.53908538818359 8.602874755859375 55.05179595947266 11.6198844909668 58.06881713867188 C 14.63690948486328 61.08583068847656 18.14962005615234 63.45430755615234 22.06046295166016 65.10845184326172 C 26.1083984375 66.82058715820312 30.40950775146484 67.68870544433594 34.84435272216797 67.68870544433594 C 39.27919769287109 67.68870544433594 43.58030700683594 66.82058715820312 47.62824249267578 65.10845184326172 C 51.53908538818359 63.45430755615234 55.05179595947266 61.08583068847656 58.06881713867188 58.06881713867188 C 61.08583068847656 55.05179595947266 63.45430755615234 51.53908538818359 65.10845184326172 47.62824249267578 C 66.82058715820312 43.58030700683594 67.68870544433594 39.27919769287109 67.68870544433594 34.84435272216797 C 67.68870544433594 30.40950775146484 66.82058715820312 26.1083984375 65.10845184326172 22.06046295166016 C 63.45430755615234 18.14962005615234 61.08583068847656 14.63690948486328 58.06881713867188 11.6198844909668 C 55.05179595947266 8.602874755859375 51.53908538818359 6.234397888183594 47.62824249267578 4.580253601074219 C 43.58030700683594 2.868118286132812 39.27919769287109 2 34.84435272216797 2 M 34.84435272216797 0 C 54.08835220336914 0 69.68870544433594 15.6003532409668 69.68870544433594 34.84435272216797 C 69.68870544433594 54.08835220336914 54.08835220336914 69.68870544433594 34.84435272216797 69.68870544433594 C 15.6003532409668 69.68870544433594 0 54.08835220336914 0 34.84435272216797 C 0 15.6003532409668 15.6003532409668 0 34.84435272216797 0 Z" stroke="none" fill="#1e1e1e"/>
      </g>
      <g id="路径_13" data-name="路径 13" transform="translate(21.09 16.964)" fill="none">
        <path d="M13.754,0A13.754,13.754,0,0,1,27.509,13.754c0,7.6-13.166,22.631-13.754,22.421S0,21.351,0,13.754A13.754,13.754,0,0,1,13.754,0Z" stroke="none"/>
        <path d="M 13.75434970855713 1.999996185302734 C 10.61464881896973 1.999996185302734 7.662870407104492 3.222663879394531 5.442770004272461 5.442764282226562 C 3.22266960144043 7.662874221801758 2 10.61464500427246 2 13.75434494018555 C 2 15.25848579406738 2.766830444335938 18.85509490966797 7.902500152587891 26.0430850982666 C 10.1792163848877 29.2296199798584 12.4819803237915 31.94767189025879 13.82494640350342 33.4247932434082 C 15.18018341064453 31.96171188354492 17.52213668823242 29.17641067504883 19.79240036010742 25.92969512939453 C 21.51025009155273 23.47297477722168 22.87651062011719 21.20652389526367 23.85321044921875 19.19329452514648 C 25.22148895263672 16.37294578552246 25.50869941711426 14.67886543273926 25.50869941711426 13.75434494018555 C 25.50869941711426 10.61464500427246 24.28602981567383 7.662874221801758 22.0659294128418 5.442764282226562 C 19.84582901000977 3.222663879394531 16.89405059814453 1.999996185302734 13.75434970855713 1.999996185302734 M 13.75434970855713 -3.814697265625e-06 C 21.35066986083984 -3.814697265625e-06 27.50869941711426 6.158035278320312 27.50869941711426 13.75434494018555 C 27.50869941711426 21.29780960083008 14.52546787261963 36.17778396606445 13.76838493347168 36.17778396606445 C 13.76308059692383 36.17778396606445 13.75844478607178 36.17706680297852 13.75434970855713 36.17560577392578 C 13.16574001312256 35.9654655456543 0 21.35066604614258 0 13.75434494018555 C 0 6.158035278320312 6.158029556274414 -3.814697265625e-06 13.75434970855713 -3.814697265625e-06 Z" stroke="none" fill="#1e1e1e"/>
      </g>
      <g id="路径_23" data-name="路径 23" transform="translate(30.26 25.675)" fill="none">
        <path d="M4.585,0A4.585,4.585,0,1,1,0,4.585,4.585,4.585,0,0,1,4.585,0Z" stroke="none"/>
        <path d="M 4.584782600402832 2.000002384185791 C 3.15953254699707 2.000002384185791 2.000002384185791 3.15953254699707 2.000002384185791 4.584782600402832 C 2.000002384185791 6.010032653808594 3.15953254699707 7.169562339782715 4.584782600402832 7.169562339782715 C 6.010032653808594 7.169562339782715 7.169562339782715 6.010032653808594 7.169562339782715 4.584782600402832 C 7.169562339782715 3.15953254699707 6.010032653808594 2.000002384185791 4.584782600402832 2.000002384185791 M 4.584782600402832 2.86102294921875e-06 C 7.11689281463623 2.86102294921875e-06 9.169562339782715 2.052672386169434 9.169562339782715 4.584782600402832 C 9.169562339782715 7.11689281463623 7.11689281463623 9.169562339782715 4.584782600402832 9.169562339782715 C 2.052672386169434 9.169562339782715 2.86102294921875e-06 7.11689281463623 2.86102294921875e-06 4.584782600402832 C 2.86102294921875e-06 2.052672386169434 2.052672386169434 2.86102294921875e-06 4.584782600402832 2.86102294921875e-06 Z" stroke="none" fill="#1e1e1e"/>
      </g>
    </g>
  </g>
</svg>
