<svg xmlns="http://www.w3.org/2000/svg" xmlns:xlink="http://www.w3.org/1999/xlink" width="70" height="70" viewBox="0 0 70 70">
  <defs>
    <clipPath id="clip-PC">
      <rect width="70" height="70"/>
    </clipPath>
  </defs>
  <g id="PC" clip-path="url(#clip-PC)">
    <g id="组_8" data-name="组 8">
      <g id="路径_25" data-name="路径 25" transform="translate(0 0)" fill="none">
        <path d="M35,0A35,35,0,1,1,0,35,35,35,0,0,1,35,0Z" stroke="none"/>
        <path d="M 35 2 C 30.54414367675781 2 26.2226448059082 2.872230529785156 22.15552139282227 4.592475891113281 C 18.22614288330078 6.254467010498047 14.6967887878418 8.634166717529297 11.66547775268555 11.66547775268555 C 8.634166717529297 14.6967887878418 6.254467010498047 18.22614288330078 4.592475891113281 22.15552139282227 C 2.872230529785156 26.2226448059082 2 30.54414367675781 2 35 C 2 39.45585632324219 2.872230529785156 43.7773551940918 4.592475891113281 47.84447860717773 C 6.254467010498047 51.77385711669922 8.634166717529297 55.3032112121582 11.66547775268555 58.33452224731445 C 14.6967887878418 61.3658332824707 18.22614288330078 63.74553298950195 22.15552139282227 65.40752410888672 C 26.2226448059082 67.12776947021484 30.54414367675781 68 35 68 C 39.45585632324219 68 43.7773551940918 67.12776947021484 47.84447860717773 65.40752410888672 C 51.77385711669922 63.74553298950195 55.3032112121582 61.3658332824707 58.33452224731445 58.33452224731445 C 61.3658332824707 55.3032112121582 63.74553298950195 51.77385711669922 65.40752410888672 47.84447860717773 C 67.12776947021484 43.7773551940918 68 39.45585632324219 68 35 C 68 30.54414367675781 67.12776947021484 26.2226448059082 65.40752410888672 22.15552139282227 C 63.74553298950195 18.22614288330078 61.3658332824707 14.6967887878418 58.33452224731445 11.66547775268555 C 55.3032112121582 8.634166717529297 51.77385711669922 6.254467010498047 47.84447860717773 4.592475891113281 C 43.7773551940918 2.872230529785156 39.45585632324219 2 35 2 M 35 0 C 54.3299674987793 0 70 15.6700325012207 70 35 C 70 54.3299674987793 54.3299674987793 70 35 70 C 15.6700325012207 70 0 54.3299674987793 0 35 C 0 15.6700325012207 15.6700325012207 0 35 0 Z" stroke="none" fill="#1e1e1e"/>
      </g>
      <path id="路径_10" data-name="路径 10" d="M313.377,719a13.345,13.345,0,0,1-4.879-.62,20.338,20.338,0,0,1-5.188-2.943c-1.084-.774-3.175-4.182-3.64-4.879l1.316-.774a25.342,25.342,0,0,0,3.175,4.414l.077.078a18.586,18.586,0,0,0,4.8,2.71,20.441,20.441,0,0,0,6.5.465h2.4a2.378,2.378,0,0,0,2.323-2.323,7.976,7.976,0,0,1,.465-2.71l.31-1.239c.232-.774.331-1.208.641-2.6h1.471c-.31,1.394-.409,2.137-.564,2.912l-.387,1.239a8.573,8.573,0,0,0-.387,2.323,3.926,3.926,0,0,1-3.872,3.872h-2.323A21.774,21.774,0,0,1,313.377,719Z" transform="translate(-271.165 -665.156)" fill="#1e1e1e"/>
      <path id="路径_11" data-name="路径 11" d="M136.334,181.778h1.549v8.154h-1.549Zm-19.359,5.461h-1.549v-12.43a15.506,15.506,0,0,0-.7-3.64,61.814,61.814,0,0,1-.788-8.166h1.485a57.443,57.443,0,0,0,.774,7.778,18.183,18.183,0,0,1,.774,4.027Zm-1.549-26.369h-1.485v-2.323a15.283,15.283,0,0,1,15.424-15.487h4.184c8.053,0,13.933,6.453,15.095,13.655h-1.718c-1.007-6.427-6.175-12.184-13.377-12.184h-4.184a13.784,13.784,0,0,0-13.939,13.939Z" transform="translate(-94.974 -128.783)" fill="#1e1e1e"/>
      <path id="路径_21" data-name="路径 21" d="M1178.643,358.519l2.621-2.3s4.393-2.167,8.144-2.173,18.563,2.753,18.563,2.753,7.251,1.738,7.814,3.006,0,9.836,0,9.836-1.93,3.986-5.579,3.462-5.359-.529-6.482-1.784-.459-5.311-2.655-5.379-3.279,4.426-5.92,4.823-7.351.073-9.009-1.121-2.587-4.166-2.6-5.954,0-2.557,0-2.557a10.984,10.984,0,0,0-2.274.594,14.446,14.446,0,0,0-2.771,1.963Z" transform="translate(-1158.8 -329.303)" fill="none" stroke="#1e1e1e" stroke-linejoin="round" stroke-width="1.5"/>
    </g>
  </g>
</svg>
