<svg xmlns="http://www.w3.org/2000/svg" xmlns:xlink="http://www.w3.org/1999/xlink" width="70" height="70" viewBox="0 0 70 70">
  <defs>
    <clipPath id="clip-PC">
      <rect width="70" height="70"/>
    </clipPath>
  </defs>
  <g id="PC" clip-path="url(#clip-PC)">
    <g id="组_7" data-name="组 7">
      <g id="路径_24" data-name="路径 24" fill="none">
        <path d="M35,0A35,35,0,1,1,0,35,35,35,0,0,1,35,0Z" stroke="none"/>
        <path d="M 35 2 C 30.54414367675781 2 26.2226448059082 2.872230529785156 22.15552139282227 4.592475891113281 C 18.22614288330078 6.254467010498047 14.6967887878418 8.634166717529297 11.66547775268555 11.66547775268555 C 8.634166717529297 14.6967887878418 6.254467010498047 18.22614288330078 4.592475891113281 22.15552139282227 C 2.872230529785156 26.2226448059082 2 30.54414367675781 2 35 C 2 39.45585632324219 2.872230529785156 43.7773551940918 4.592475891113281 47.84447860717773 C 6.254467010498047 51.77385711669922 8.634166717529297 55.3032112121582 11.66547775268555 58.33452224731445 C 14.6967887878418 61.3658332824707 18.22614288330078 63.74553298950195 22.15552139282227 65.40752410888672 C 26.2226448059082 67.12776947021484 30.54414367675781 68 35 68 C 39.45585632324219 68 43.7773551940918 67.12776947021484 47.84447860717773 65.40752410888672 C 51.77385711669922 63.74553298950195 55.3032112121582 61.3658332824707 58.33452224731445 58.33452224731445 C 61.3658332824707 55.3032112121582 63.74553298950195 51.77385711669922 65.40752410888672 47.84447860717773 C 67.12776947021484 43.7773551940918 68 39.45585632324219 68 35 C 68 30.54414367675781 67.12776947021484 26.2226448059082 65.40752410888672 22.15552139282227 C 63.74553298950195 18.22614288330078 61.3658332824707 14.6967887878418 58.33452224731445 11.66547775268555 C 55.3032112121582 8.634166717529297 51.77385711669922 6.254467010498047 47.84447860717773 4.592475891113281 C 43.7773551940918 2.872230529785156 39.45585632324219 2 35 2 M 35 0 C 54.3299674987793 0 70 15.6700325012207 70 35 C 70 54.3299674987793 54.3299674987793 70 35 70 C 15.6700325012207 70 0 54.3299674987793 0 35 C 0 15.6700325012207 15.6700325012207 0 35 0 Z" stroke="none" fill="#1e1e1e"/>
      </g>
      <g id="空间定位" transform="translate(17.5 18.882)">
        <path id="路径_15" data-name="路径 15" d="M465.856,127.489a.256.256,0,0,1-.256-.256V102.956a.256.256,0,0,1,.513,0v24.276A.265.265,0,0,1,465.856,127.489Z" transform="translate(-453.927 -102.383)"/>
        <path id="路径_16" data-name="路径 16" d="M315.949,105.027H292.913a.376.376,0,0,1-.175-.708l11.552-6.231a.4.4,0,0,1,.175-.047L327.251,98a.369.369,0,0,1,.364.283.381.381,0,0,1-.182.425l-11.3,6.271A.367.367,0,0,1,315.949,105.027Zm-21.532-.755h21.431l9.933-5.509-21.222.04Z" transform="translate(-292.536 -98)"/>
        <path id="路径_17" data-name="路径 17" d="M315.974,134.447h-23.1a.377.377,0,0,1-.378-.378V109.125a.377.377,0,0,1,.378-.378h23.1a.377.377,0,0,1,.378.378v24.944A.377.377,0,0,1,315.974,134.447Zm-22.719-.755H315.6V109.5H293.255Zm33.96-5.981a.377.377,0,0,1-.378-.378V103.178a.378.378,0,1,1,.755,0v24.148A.383.383,0,0,1,327.215,127.71Z" transform="translate(-292.5 -102.476)"/>
        <path id="路径_18" data-name="路径 18" d="M635.312,471.642a.39.39,0,0,1-.33-.189.383.383,0,0,1,.135-.519l11.241-6.507a.382.382,0,0,1,.384.661L635.5,471.594a.374.374,0,0,1-.189.047Z" transform="translate(-611.838 -439.671)"/>
        <path id="路径_19" data-name="路径 19" d="M294.6,472.891a.253.253,0,0,1-.223-.135.263.263,0,0,1,.1-.351l11.552-6.231a.41.41,0,0,1,.121-.034l22.786-.04a.256.256,0,0,1,0,.512l-22.725.04-11.491,6.2A.218.218,0,0,1,294.6,472.891Z" transform="translate(-294.218 -441.277)"/>
        <path id="路径_20" data-name="路径 20" d="M802.078,123.47a.377.377,0,0,1-.378-.378V98.378a.378.378,0,1,1,.755,0v24.708A.383.383,0,0,1,802.078,123.47Z" transform="translate(-767.362 -98)"/>
      </g>
    </g>
  </g>
</svg>
