<svg xmlns="http://www.w3.org/2000/svg" xmlns:xlink="http://www.w3.org/1999/xlink" width="70" height="70" viewBox="0 0 70 70">
  <defs>
    <clipPath id="clip-PC">
      <rect width="70" height="70"/>
    </clipPath>
  </defs>
  <g id="PC" clip-path="url(#clip-PC)">
    <g id="组_9" data-name="组 9">
      <g id="路径_26" data-name="路径 26" transform="translate(0 0)" fill="none">
        <path d="M35,0A35,35,0,1,1,0,35,35,35,0,0,1,35,0Z" stroke="none"/>
        <path d="M 35 2 C 30.54414367675781 2 26.2226448059082 2.872230529785156 22.15552139282227 4.592475891113281 C 18.22614288330078 6.254467010498047 14.6967887878418 8.634166717529297 11.66547775268555 11.66547775268555 C 8.634166717529297 14.6967887878418 6.254467010498047 18.22614288330078 4.592475891113281 22.15552139282227 C 2.872230529785156 26.2226448059082 2 30.54414367675781 2 35 C 2 39.45585632324219 2.872230529785156 43.7773551940918 4.592475891113281 47.84447860717773 C 6.254467010498047 51.77385711669922 8.634166717529297 55.3032112121582 11.66547775268555 58.33452224731445 C 14.6967887878418 61.3658332824707 18.22614288330078 63.74553298950195 22.15552139282227 65.40752410888672 C 26.2226448059082 67.12776947021484 30.54414367675781 68 35 68 C 39.45585632324219 68 43.7773551940918 67.12776947021484 47.84447860717773 65.40752410888672 C 51.77385711669922 63.74553298950195 55.3032112121582 61.3658332824707 58.33452224731445 58.33452224731445 C 61.3658332824707 55.3032112121582 63.74553298950195 51.77385711669922 65.40752410888672 47.84447860717773 C 67.12776947021484 43.7773551940918 68 39.45585632324219 68 35 C 68 30.54414367675781 67.12776947021484 26.2226448059082 65.40752410888672 22.15552139282227 C 63.74553298950195 18.22614288330078 61.3658332824707 14.6967887878418 58.33452224731445 11.66547775268555 C 55.3032112121582 8.634166717529297 51.77385711669922 6.254467010498047 47.84447860717773 4.592475891113281 C 43.7773551940918 2.872230529785156 39.45585632324219 2 35 2 M 35 0 C 54.3299674987793 0 70 15.6700325012207 70 35 C 70 54.3299674987793 54.3299674987793 70 35 70 C 15.6700325012207 70 0 54.3299674987793 0 35 C 0 15.6700325012207 15.6700325012207 0 35 0 Z" stroke="none" fill="#1e1e1e"/>
      </g>
      <g id="路径_29" data-name="路径 29" transform="translate(32.697 16.579)" fill="none">
        <path d="M1.612,0A1.612,1.612,0,0,1,3.224,1.612V35.23A1.612,1.612,0,0,1,0,35.23V1.612A1.612,1.612,0,0,1,1.612,0Z" stroke="none"/>
        <path d="M 1.611842155456543 1.000003814697266 C 1.274472117424011 1.000003814697266 1.000002145767212 1.274471282958984 1.000002145767212 1.611843109130859 L 1.000002145767212 35.23026275634766 C 1.000002145767212 35.56763458251953 1.274472117424011 35.84210205078125 1.611842155456543 35.84210205078125 C 1.949212193489075 35.84210205078125 2.223682165145874 35.56763458251953 2.223682165145874 35.23026275634766 L 2.223682165145874 1.611843109130859 C 2.223682165145874 1.274471282958984 1.949212193489075 1.000003814697266 1.611842155456543 1.000003814697266 M 1.611842155456543 3.814697265625e-06 C 2.502042293548584 3.814697265625e-06 3.223682165145874 0.7216415405273438 3.223682165145874 1.611843109130859 L 3.223682165145874 35.23026275634766 C 3.223682165145874 36.12046432495117 2.502042293548584 36.84210205078125 1.611842155456543 36.84210205078125 C 0.7216422557830811 36.84210205078125 2.145767211914062e-06 36.12046432495117 2.145767211914062e-06 35.23026275634766 L 2.145767211914062e-06 1.611843109130859 C 2.145767211914062e-06 0.7216415405273438 0.7216422557830811 3.814697265625e-06 1.611842155456543 3.814697265625e-06 Z" stroke="none" fill="#1e1e1e"/>
      </g>
      <g id="路径_28" data-name="路径 28" transform="translate(40.526 21.184)" fill="none">
        <path d="M1.612,0A1.612,1.612,0,0,1,3.224,1.612V26.02A1.612,1.612,0,1,1,0,26.02V1.612A1.612,1.612,0,0,1,1.612,0Z" stroke="none"/>
        <path d="M 1.611842155456543 1.000001907348633 C 1.274472117424011 1.000001907348633 1.000002145767212 1.274471282958984 1.000002145767212 1.611841201782227 L 1.000002145767212 26.01974105834961 C 1.000002145767212 26.35711097717285 1.274472117424011 26.6315803527832 1.611842155456543 26.6315803527832 C 1.949212193489075 26.6315803527832 2.223682165145874 26.35711097717285 2.223682165145874 26.01974105834961 L 2.223682165145874 1.611841201782227 C 2.223682165145874 1.274471282958984 1.949212193489075 1.000001907348633 1.611842155456543 1.000001907348633 M 1.611842155456543 1.9073486328125e-06 C 2.502042293548584 1.9073486328125e-06 3.223682165145874 0.7216510772705078 3.223682165145874 1.611841201782227 L 3.223682165145874 26.01974105834961 C 3.223682165145874 26.90994071960449 2.502042293548584 27.6315803527832 1.611842155456543 27.6315803527832 C 0.7216422557830811 27.6315803527832 2.145767211914062e-06 26.90994071960449 2.145767211914062e-06 26.01974105834961 L 2.145767211914062e-06 1.611841201782227 C 2.145767211914062e-06 0.7216510772705078 0.7216422557830811 1.9073486328125e-06 1.611842155456543 1.9073486328125e-06 Z" stroke="none" fill="#1e1e1e"/>
      </g>
      <g id="路径_27" data-name="路径 27" transform="translate(48.355 25.789)" fill="none">
        <path d="M1.612,0A1.612,1.612,0,0,1,3.224,1.612v15.2a1.612,1.612,0,0,1-3.224,0V1.612A1.612,1.612,0,0,1,1.612,0Z" stroke="none"/>
        <path d="M 1.611842155456543 0.9999961853027344 C 1.274472117424011 0.9999961853027344 1.000002145767212 1.274465560913086 1.000002145767212 1.611837387084961 L 1.000002145767212 16.8092155456543 C 1.000002145767212 17.14658737182617 1.274472117424011 17.42105674743652 1.611842155456543 17.42105674743652 C 1.949212193489075 17.42105674743652 2.223682165145874 17.14658737182617 2.223682165145874 16.8092155456543 L 2.223682165145874 1.611837387084961 C 2.223682165145874 1.274465560913086 1.949212193489075 0.9999961853027344 1.611842155456543 0.9999961853027344 M 1.611842155456543 -3.814697265625e-06 C 2.502042293548584 -3.814697265625e-06 3.223682165145874 0.7216472625732422 3.223682165145874 1.611837387084961 L 3.223682165145874 16.8092155456543 C 3.223682165145874 17.69940567016602 2.502042293548584 18.42105674743652 1.611842155456543 18.42105674743652 C 0.7216422557830811 18.42105674743652 2.145767211914062e-06 17.69940567016602 2.145767211914062e-06 16.8092155456543 L 2.145767211914062e-06 1.611837387084961 C 2.145767211914062e-06 0.7216472625732422 0.7216422557830811 -3.814697265625e-06 1.611842155456543 -3.814697265625e-06 Z" stroke="none" fill="#1e1e1e"/>
      </g>
      <g id="路径_31" data-name="路径 31" transform="translate(18.421 25.789)" fill="none">
        <path d="M1.612,0A1.612,1.612,0,0,1,3.224,1.612v15.2a1.612,1.612,0,0,1-3.224,0V1.612A1.612,1.612,0,0,1,1.612,0Z" stroke="none"/>
        <path d="M 1.611842155456543 0.9999961853027344 C 1.274472117424011 0.9999961853027344 1.000002145767212 1.274465560913086 1.000002145767212 1.611837387084961 L 1.000002145767212 16.8092155456543 C 1.000002145767212 17.14658737182617 1.274472117424011 17.42105674743652 1.611842155456543 17.42105674743652 C 1.949212193489075 17.42105674743652 2.223682165145874 17.14658737182617 2.223682165145874 16.8092155456543 L 2.223682165145874 1.611837387084961 C 2.223682165145874 1.274465560913086 1.949212193489075 0.9999961853027344 1.611842155456543 0.9999961853027344 M 1.611842155456543 -3.814697265625e-06 C 2.502042293548584 -3.814697265625e-06 3.223682165145874 0.7216472625732422 3.223682165145874 1.611837387084961 L 3.223682165145874 16.8092155456543 C 3.223682165145874 17.69940567016602 2.502042293548584 18.42105674743652 1.611842155456543 18.42105674743652 C 0.7216422557830811 18.42105674743652 2.145767211914062e-06 17.69940567016602 2.145767211914062e-06 16.8092155456543 L 2.145767211914062e-06 1.611837387084961 C 2.145767211914062e-06 0.7216472625732422 0.7216422557830811 -3.814697265625e-06 1.611842155456543 -3.814697265625e-06 Z" stroke="none" fill="#1e1e1e"/>
      </g>
      <g id="路径_30" data-name="路径 30" transform="translate(26.25 21.184)" fill="none">
        <path d="M1.612,0A1.612,1.612,0,0,1,3.224,1.612V26.02A1.612,1.612,0,1,1,0,26.02V1.612A1.612,1.612,0,0,1,1.612,0Z" stroke="none"/>
        <path d="M 1.611842155456543 1.000001907348633 C 1.274472117424011 1.000001907348633 1.000002145767212 1.274471282958984 1.000002145767212 1.611841201782227 L 1.000002145767212 26.01974105834961 C 1.000002145767212 26.35711097717285 1.274472117424011 26.6315803527832 1.611842155456543 26.6315803527832 C 1.949212193489075 26.6315803527832 2.223682165145874 26.35711097717285 2.223682165145874 26.01974105834961 L 2.223682165145874 1.611841201782227 C 2.223682165145874 1.274471282958984 1.949212193489075 1.000001907348633 1.611842155456543 1.000001907348633 M 1.611842155456543 1.9073486328125e-06 C 2.502042293548584 1.9073486328125e-06 3.223682165145874 0.7216510772705078 3.223682165145874 1.611841201782227 L 3.223682165145874 26.01974105834961 C 3.223682165145874 26.90994071960449 2.502042293548584 27.6315803527832 1.611842155456543 27.6315803527832 C 0.7216422557830811 27.6315803527832 2.145767211914062e-06 26.90994071960449 2.145767211914062e-06 26.01974105834961 L 2.145767211914062e-06 1.611841201782227 C 2.145767211914062e-06 0.7216510772705078 0.7216422557830811 1.9073486328125e-06 1.611842155456543 1.9073486328125e-06 Z" stroke="none" fill="#1e1e1e"/>
      </g>
    </g>
  </g>
</svg>
